unsigned char fallen_down[] = {
  0x4d, 0x54, 0x68, 0x64, 0x00, 0x00, 0x00, 0x06, 0x00, 0x01, 0x00, 0x03,
  0x01, 0xe0, 0x4d, 0x54, 0x72, 0x6b, 0x00, 0x00, 0x05, 0x0c, 0x00, 0xff,
  0x58, 0x04, 0x03, 0x02, 0x18, 0x08, 0x00, 0xff, 0x59, 0x02, 0x02, 0x00,
  0x00, 0xff, 0x51, 0x03, 0x08, 0x52, 0xb0, 0x00, 0xb0, 0x79, 0x00, 0x00,
  0xc0, 0x00, 0x00, 0xb0, 0x07, 0x64, 0x00, 0x0a, 0x40, 0x00, 0x5b, 0x00,
  0x00, 0x5d, 0x00, 0x00, 0xff, 0x21, 0x01, 0x00, 0x00, 0x90, 0x4e, 0x50,
  0x81, 0x63, 0x4e, 0x00, 0x0d, 0x49, 0x50, 0x81, 0x63, 0x49, 0x00, 0x0d,
  0x4e, 0x50, 0x81, 0x63, 0x4e, 0x00, 0x0d, 0x49, 0x50, 0x81, 0x63, 0x49,
  0x00, 0x0d, 0x4e, 0x50, 0x81, 0x63, 0x4e, 0x00, 0x0d, 0x49, 0x50, 0x81,
  0x63, 0x49, 0x00, 0x0d, 0x4e, 0x50, 0x81, 0x63, 0x4e, 0x00, 0x0d, 0x49,
  0x50, 0x81, 0x63, 0x49, 0x00, 0x0d, 0x4e, 0x50, 0x81, 0x63, 0x4e, 0x00,
  0x0d, 0x49, 0x50, 0x81, 0x63, 0x49, 0x00, 0x0d, 0x4e, 0x50, 0x81, 0x63,
  0x4e, 0x00, 0x0d, 0x49, 0x50, 0x81, 0x63, 0x49, 0x00, 0x0d, 0x47, 0x50,
  0x81, 0x63, 0x47, 0x00, 0x0d, 0x45, 0x50, 0x81, 0x63, 0x45, 0x00, 0x0d,
  0x49, 0x50, 0x83, 0x47, 0x49, 0x00, 0x19, 0x45, 0x50, 0x81, 0x63, 0x45,
  0x00, 0x0d, 0x47, 0x50, 0x81, 0x63, 0x47, 0x00, 0x0d, 0x4c, 0x50, 0x81,
  0x63, 0x4c, 0x00, 0x0d, 0x4b, 0x50, 0x81, 0x63, 0x4b, 0x00, 0x0d, 0x4c,
  0x50, 0x81, 0x63, 0x4c, 0x00, 0x0d, 0x4e, 0x50, 0x81, 0x63, 0x4e, 0x00,
  0x0d, 0x4b, 0x50, 0x81, 0x63, 0x4b, 0x00, 0x0d, 0x47, 0x50, 0x81, 0x63,
  0x47, 0x00, 0x0d, 0x4e, 0x50, 0x81, 0x63, 0x4e, 0x00, 0x0d, 0x47, 0x50,
  0x81, 0x63, 0x47, 0x00, 0x0d, 0x4e, 0x50, 0x81, 0x63, 0x4e, 0x00, 0x0d,
  0x47, 0x50, 0x81, 0x63, 0x47, 0x00, 0x0d, 0x4e, 0x50, 0x81, 0x63, 0x4e,
  0x00, 0x0d, 0x47, 0x50, 0x81, 0x63, 0x47, 0x00, 0x0d, 0x4e, 0x50, 0x81,
  0x63, 0x4e, 0x00, 0x0d, 0x46, 0x50, 0x81, 0x63, 0x46, 0x00, 0x0d, 0x4e,
  0x50, 0x81, 0x63, 0x4e, 0x00, 0x0d, 0x46, 0x50, 0x81, 0x63, 0x46, 0x00,
  0x0d, 0x4f, 0x50, 0x83, 0x47, 0x4f, 0x00, 0x19, 0x4e, 0x50, 0x81, 0x63,
  0x4e, 0x00, 0x0d, 0x4a, 0x50, 0x81, 0x63, 0x4a, 0x00, 0x0d, 0x4e, 0x50,
  0x81, 0x63, 0x4e, 0x00, 0x0d, 0x4a, 0x50, 0x81, 0x63, 0x4a, 0x00, 0x0d,
  0x4c, 0x50, 0x81, 0x63, 0x4c, 0x00, 0x0d, 0x4e, 0x50, 0x81, 0x63, 0x4e,
  0x00, 0x0d, 0x4c, 0x50, 0x83, 0x47, 0x4c, 0x00, 0x19, 0x4a, 0x50, 0x83,
  0x47, 0x4a, 0x00, 0x19, 0x49, 0x50, 0x83, 0x47, 0x49, 0x00, 0x18, 0xff,
  0x51, 0x03, 0x08, 0x52, 0xb0, 0x01, 0xff, 0x58, 0x04, 0x03, 0x02, 0x18,
  0x08, 0x00, 0xff, 0x59, 0x02, 0x02, 0x00, 0x00, 0xff, 0x51, 0x03, 0x08,
  0x52, 0xb0, 0x00, 0x90, 0x4e, 0x50, 0x81, 0x63, 0x4e, 0x00, 0x0d, 0x49,
  0x50, 0x81, 0x63, 0x49, 0x00, 0x0d, 0x4e, 0x50, 0x81, 0x63, 0x4e, 0x00,
  0x0d, 0x49, 0x50, 0x81, 0x63, 0x49, 0x00, 0x0d, 0x4e, 0x50, 0x81, 0x63,
  0x4e, 0x00, 0x0d, 0x49, 0x50, 0x81, 0x63, 0x49, 0x00, 0x0d, 0x4e, 0x50,
  0x81, 0x63, 0x4e, 0x00, 0x0d, 0x49, 0x50, 0x81, 0x63, 0x49, 0x00, 0x0d,
  0x4e, 0x50, 0x81, 0x63, 0x4e, 0x00, 0x0d, 0x49, 0x50, 0x81, 0x63, 0x49,
  0x00, 0x0d, 0x4e, 0x50, 0x81, 0x63, 0x4e, 0x00, 0x0d, 0x49, 0x50, 0x81,
  0x63, 0x49, 0x00, 0x0d, 0x47, 0x50, 0x81, 0x63, 0x47, 0x00, 0x0d, 0x45,
  0x50, 0x81, 0x63, 0x45, 0x00, 0x0d, 0x49, 0x50, 0x83, 0x47, 0x49, 0x00,
  0x19, 0x45, 0x50, 0x81, 0x63, 0x45, 0x00, 0x0d, 0x47, 0x50, 0x81, 0x63,
  0x47, 0x00, 0x0d, 0x4c, 0x50, 0x81, 0x63, 0x4c, 0x00, 0x0d, 0x4b, 0x50,
  0x81, 0x63, 0x4b, 0x00, 0x0d, 0x4c, 0x50, 0x81, 0x63, 0x4c, 0x00, 0x0d,
  0x4e, 0x50, 0x81, 0x63, 0x4e, 0x00, 0x0d, 0x4b, 0x50, 0x81, 0x63, 0x4b,
  0x00, 0x0d, 0x47, 0x50, 0x81, 0x63, 0x47, 0x00, 0x0d, 0x4e, 0x50, 0x81,
  0x63, 0x4e, 0x00, 0x0d, 0x47, 0x50, 0x81, 0x63, 0x47, 0x00, 0x0d, 0x4e,
  0x50, 0x81, 0x63, 0x4e, 0x00, 0x0d, 0x47, 0x50, 0x81, 0x63, 0x47, 0x00,
  0x0d, 0x4e, 0x50, 0x81, 0x63, 0x4e, 0x00, 0x0d, 0x47, 0x50, 0x81, 0x63,
  0x47, 0x00, 0x0d, 0x4e, 0x50, 0x81, 0x63, 0x4e, 0x00, 0x0d, 0x46, 0x50,
  0x81, 0x63, 0x46, 0x00, 0x0d, 0x4e, 0x50, 0x81, 0x63, 0x4e, 0x00, 0x0d,
  0x46, 0x50, 0x81, 0x63, 0x46, 0x00, 0x0d, 0x4f, 0x50, 0x83, 0x47, 0x4f,
  0x00, 0x19, 0x4e, 0x50, 0x81, 0x63, 0x4e, 0x00, 0x0d, 0x4a, 0x50, 0x81,
  0x63, 0x4a, 0x00, 0x0d, 0x4e, 0x50, 0x81, 0x63, 0x4e, 0x00, 0x0d, 0x4a,
  0x50, 0x81, 0x63, 0x4a, 0x00, 0x0d, 0x4c, 0x50, 0x81, 0x63, 0x4c, 0x00,
  0x0d, 0x4e, 0x50, 0x81, 0x63, 0x4e, 0x00, 0x0d, 0x4c, 0x50, 0x83, 0x47,
  0x4c, 0x00, 0x19, 0x4a, 0x50, 0x83, 0x47, 0x4a, 0x00, 0x19, 0x49, 0x50,
  0x83, 0x47, 0x49, 0x00, 0x19, 0x4e, 0x50, 0x81, 0x63, 0x4e, 0x00, 0x0d,
  0x49, 0x50, 0x81, 0x63, 0x49, 0x00, 0x0d, 0x4e, 0x50, 0x81, 0x63, 0x4e,
  0x00, 0x0d, 0x49, 0x50, 0x81, 0x63, 0x49, 0x00, 0x0d, 0x4e, 0x50, 0x81,
  0x63, 0x4e, 0x00, 0x0d, 0x49, 0x50, 0x81, 0x63, 0x49, 0x00, 0x0d, 0x4e,
  0x50, 0x81, 0x63, 0x4e, 0x00, 0x0d, 0x49, 0x50, 0x81, 0x63, 0x49, 0x00,
  0x0d, 0x4e, 0x50, 0x81, 0x63, 0x4e, 0x00, 0x0d, 0x49, 0x50, 0x81, 0x63,
  0x49, 0x00, 0x0d, 0x4e, 0x50, 0x81, 0x63, 0x4e, 0x00, 0x0d, 0x49, 0x50,
  0x81, 0x63, 0x49, 0x00, 0x0d, 0x47, 0x50, 0x81, 0x63, 0x47, 0x00, 0x0d,
  0x45, 0x50, 0x81, 0x63, 0x45, 0x00, 0x0d, 0x49, 0x50, 0x83, 0x47, 0x49,
  0x00, 0x19, 0x45, 0x50, 0x81, 0x63, 0x45, 0x00, 0x0d, 0x47, 0x50, 0x81,
  0x63, 0x47, 0x00, 0x0d, 0x4c, 0x50, 0x81, 0x63, 0x4c, 0x00, 0x0d, 0x4b,
  0x50, 0x81, 0x63, 0x4b, 0x00, 0x0d, 0x4c, 0x50, 0x81, 0x63, 0x4c, 0x00,
  0x0d, 0x4e, 0x50, 0x81, 0x63, 0x4e, 0x00, 0x0d, 0x4b, 0x50, 0x81, 0x63,
  0x4b, 0x00, 0x0d, 0x47, 0x50, 0x81, 0x63, 0x47, 0x00, 0x0d, 0x4e, 0x50,
  0x81, 0x63, 0x4e, 0x00, 0x0d, 0x47, 0x50, 0x81, 0x63, 0x47, 0x00, 0x0d,
  0x4e, 0x50, 0x81, 0x63, 0x4e, 0x00, 0x0d, 0x47, 0x50, 0x81, 0x63, 0x47,
  0x00, 0x0d, 0x4e, 0x50, 0x81, 0x63, 0x4e, 0x00, 0x0d, 0x47, 0x50, 0x81,
  0x63, 0x47, 0x00, 0x0d, 0x4e, 0x50, 0x81, 0x63, 0x4e, 0x00, 0x0d, 0x46,
  0x50, 0x81, 0x63, 0x46, 0x00, 0x0d, 0x4e, 0x50, 0x81, 0x63, 0x4e, 0x00,
  0x0d, 0x46, 0x50, 0x81, 0x63, 0x46, 0x00, 0x0d, 0x4f, 0x50, 0x83, 0x47,
  0x4f, 0x00, 0x19, 0x4e, 0x50, 0x81, 0x63, 0x4e, 0x00, 0x0d, 0x4a, 0x50,
  0x81, 0x63, 0x4a, 0x00, 0x0d, 0x4e, 0x50, 0x81, 0x63, 0x4e, 0x00, 0x0d,
  0x4a, 0x50, 0x81, 0x63, 0x4a, 0x00, 0x0d, 0x4c, 0x50, 0x81, 0x63, 0x4c,
  0x00, 0x0d, 0x4e, 0x50, 0x81, 0x63, 0x4e, 0x00, 0x0d, 0x4c, 0x50, 0x83,
  0x47, 0x4c, 0x00, 0x19, 0x4a, 0x50, 0x83, 0x47, 0x4a, 0x00, 0x19, 0x49,
  0x50, 0x83, 0x47, 0x49, 0x00, 0x18, 0xff, 0x51, 0x03, 0x08, 0x52, 0xb0,
  0x01, 0x90, 0x4e, 0x50, 0x81, 0x63, 0x4e, 0x00, 0x0d, 0x49, 0x50, 0x81,
  0x63, 0x49, 0x00, 0x0d, 0x4e, 0x50, 0x81, 0x63, 0x4e, 0x00, 0x0d, 0x49,
  0x50, 0x81, 0x63, 0x49, 0x00, 0x0d, 0x4e, 0x50, 0x81, 0x63, 0x4e, 0x00,
  0x0d, 0x49, 0x50, 0x81, 0x63, 0x49, 0x00, 0x0d, 0x4e, 0x50, 0x81, 0x63,
  0x4e, 0x00, 0x0d, 0x49, 0x50, 0x81, 0x63, 0x49, 0x00, 0x0d, 0x4e, 0x50,
  0x81, 0x63, 0x4e, 0x00, 0x0d, 0x49, 0x50, 0x81, 0x63, 0x49, 0x00, 0x0d,
  0x4e, 0x50, 0x81, 0x63, 0x4e, 0x00, 0x0d, 0x49, 0x50, 0x81, 0x63, 0x49,
  0x00, 0x0d, 0x47, 0x50, 0x81, 0x63, 0x47, 0x00, 0x0d, 0x45, 0x50, 0x81,
  0x63, 0x45, 0x00, 0x0d, 0x49, 0x50, 0x83, 0x47, 0x49, 0x00, 0x19, 0x45,
  0x50, 0x81, 0x63, 0x45, 0x00, 0x0d, 0x47, 0x50, 0x81, 0x63, 0x47, 0x00,
  0x0d, 0x4c, 0x50, 0x81, 0x63, 0x4c, 0x00, 0x0d, 0x4b, 0x50, 0x81, 0x63,
  0x4b, 0x00, 0x0d, 0x4c, 0x50, 0x81, 0x63, 0x4c, 0x00, 0x0d, 0x4e, 0x50,
  0x81, 0x63, 0x4e, 0x00, 0x0d, 0x4b, 0x50, 0x81, 0x63, 0x4b, 0x00, 0x0d,
  0x47, 0x50, 0x81, 0x63, 0x47, 0x00, 0x0d, 0x4e, 0x50, 0x81, 0x63, 0x4e,
  0x00, 0x0d, 0x47, 0x50, 0x81, 0x63, 0x47, 0x00, 0x0d, 0x4e, 0x50, 0x81,
  0x63, 0x4e, 0x00, 0x0d, 0x47, 0x50, 0x81, 0x63, 0x47, 0x00, 0x0d, 0x4e,
  0x50, 0x81, 0x63, 0x4e, 0x00, 0x0d, 0x47, 0x50, 0x81, 0x63, 0x47, 0x00,
  0x0d, 0x4e, 0x50, 0x81, 0x63, 0x4e, 0x00, 0x0d, 0x46, 0x50, 0x81, 0x63,
  0x46, 0x00, 0x0d, 0x4e, 0x50, 0x81, 0x63, 0x4e, 0x00, 0x0d, 0x46, 0x50,
  0x81, 0x63, 0x46, 0x00, 0x0d, 0x4f, 0x50, 0x83, 0x47, 0x4f, 0x00, 0x19,
  0x4e, 0x50, 0x81, 0x63, 0x4e, 0x00, 0x0d, 0x4a, 0x50, 0x81, 0x63, 0x4a,
  0x00, 0x0d, 0x4e, 0x50, 0x81, 0x63, 0x4e, 0x00, 0x0d, 0x4a, 0x50, 0x81,
  0x63, 0x4a, 0x00, 0x0d, 0x4c, 0x50, 0x81, 0x63, 0x4c, 0x00, 0x0d, 0x4e,
  0x50, 0x81, 0x63, 0x4e, 0x00, 0x0d, 0x49, 0x50, 0x83, 0x47, 0x49, 0x00,
  0x19, 0x4e, 0x50, 0x83, 0x47, 0x4e, 0x00, 0x19, 0x49, 0x50, 0x83, 0x47,
  0x49, 0x00, 0x01, 0xff, 0x2f, 0x00, 0x4d, 0x54, 0x72, 0x6b, 0x00, 0x00,
  0x05, 0x57, 0x00, 0xff, 0x59, 0x02, 0x02, 0x00, 0x00, 0xff, 0x21, 0x01,
  0x00, 0x00, 0x90, 0x3e, 0x50, 0x81, 0x63, 0x3e, 0x00, 0x0d, 0x42, 0x50,
  0x81, 0x63, 0x42, 0x00, 0x0d, 0x45, 0x50, 0x81, 0x63, 0x45, 0x00, 0x0d,
  0x42, 0x50, 0x81, 0x63, 0x42, 0x00, 0x0d, 0x45, 0x50, 0x81, 0x63, 0x45,
  0x00, 0x0d, 0x42, 0x50, 0x81, 0x63, 0x42, 0x00, 0x0d, 0x3e, 0x50, 0x81,
  0x63, 0x3e, 0x00, 0x0d, 0x42, 0x50, 0x81, 0x63, 0x42, 0x00, 0x0d, 0x45,
  0x50, 0x81, 0x63, 0x45, 0x00, 0x0d, 0x42, 0x50, 0x81, 0x63, 0x42, 0x00,
  0x0d, 0x45, 0x50, 0x81, 0x63, 0x45, 0x00, 0x0d, 0x42, 0x50, 0x81, 0x63,
  0x42, 0x00, 0x0d, 0x3b, 0x50, 0x81, 0x63, 0x3b, 0x00, 0x0d, 0x3f, 0x50,
  0x81, 0x63, 0x3f, 0x00, 0x0d, 0x42, 0x50, 0x81, 0x63, 0x42, 0x00, 0x0d,
  0x3f, 0x50, 0x81, 0x63, 0x3f, 0x00, 0x0d, 0x42, 0x50, 0x81, 0x63, 0x42,
  0x00, 0x0d, 0x3f, 0x50, 0x81, 0x63, 0x3f, 0x00, 0x0d, 0x3b, 0x50, 0x81,
  0x63, 0x3b, 0x00, 0x0d, 0x3f, 0x50, 0x81, 0x63, 0x3f, 0x00, 0x0d, 0x42,
  0x50, 0x81, 0x63, 0x42, 0x00, 0x0d, 0x3f, 0x50, 0x81, 0x63, 0x3f, 0x00,
  0x0d, 0x42, 0x50, 0x81, 0x63, 0x42, 0x00, 0x0d, 0x3f, 0x50, 0x81, 0x63,
  0x3f, 0x00, 0x0d, 0x37, 0x50, 0x81, 0x63, 0x37, 0x00, 0x0d, 0x3b, 0x50,
  0x81, 0x63, 0x3b, 0x00, 0x0d, 0x3e, 0x50, 0x81, 0x63, 0x3e, 0x00, 0x0d,
  0x3b, 0x50, 0x81, 0x63, 0x3b, 0x00, 0x0d, 0x3e, 0x50, 0x81, 0x63, 0x3e,
  0x00, 0x0d, 0x3b, 0x50, 0x81, 0x63, 0x3b, 0x00, 0x0d, 0x37, 0x50, 0x81,
  0x63, 0x37, 0x00, 0x0d, 0x3a, 0x50, 0x81, 0x63, 0x3a, 0x00, 0x0d, 0x3e,
  0x50, 0x81, 0x63, 0x3e, 0x00, 0x0d, 0x3a, 0x50, 0x81, 0x63, 0x3a, 0x00,
  0x0d, 0x3e, 0x50, 0x81, 0x63, 0x3e, 0x00, 0x0d, 0x3a, 0x50, 0x81, 0x63,
  0x3a, 0x00, 0x0d, 0x3e, 0x50, 0x81, 0x63, 0x3e, 0x00, 0x0d, 0x42, 0x50,
  0x81, 0x63, 0x42, 0x00, 0x0d, 0x45, 0x50, 0x81, 0x63, 0x45, 0x00, 0x0d,
  0x42, 0x50, 0x81, 0x63, 0x42, 0x00, 0x0d, 0x45, 0x50, 0x81, 0x63, 0x45,
  0x00, 0x0d, 0x42, 0x50, 0x81, 0x63, 0x42, 0x00, 0x0d, 0x3d, 0x50, 0x81,
  0x63, 0x3d, 0x00, 0x0d, 0x40, 0x50, 0x81, 0x63, 0x40, 0x00, 0x0d, 0x45,
  0x50, 0x81, 0x63, 0x45, 0x00, 0x0d, 0x40, 0x50, 0x81, 0x63, 0x40, 0x00,
  0x0d, 0x45, 0x50, 0x81, 0x63, 0x45, 0x00, 0x0d, 0x40, 0x50, 0x81, 0x63,
  0x40, 0x00, 0x0d, 0xff, 0x59, 0x02, 0x02, 0x00, 0x00, 0x90, 0x3e, 0x50,
  0x81, 0x63, 0x3e, 0x00, 0x0d, 0x42, 0x50, 0x81, 0x63, 0x42, 0x00, 0x0d,
  0x45, 0x50, 0x81, 0x63, 0x45, 0x00, 0x0d, 0x42, 0x50, 0x81, 0x63, 0x42,
  0x00, 0x0d, 0x45, 0x50, 0x81, 0x63, 0x45, 0x00, 0x0d, 0x42, 0x50, 0x81,
  0x63, 0x42, 0x00, 0x0d, 0x3e, 0x50, 0x81, 0x63, 0x3e, 0x00, 0x0d, 0x42,
  0x50, 0x81, 0x63, 0x42, 0x00, 0x0d, 0x45, 0x50, 0x81, 0x63, 0x45, 0x00,
  0x0d, 0x42, 0x50, 0x81, 0x63, 0x42, 0x00, 0x0d, 0x45, 0x50, 0x81, 0x63,
  0x45, 0x00, 0x0d, 0x42, 0x50, 0x81, 0x63, 0x42, 0x00, 0x0d, 0x3b, 0x50,
  0x81, 0x63, 0x3b, 0x00, 0x0d, 0x3f, 0x50, 0x81, 0x63, 0x3f, 0x00, 0x0d,
  0x42, 0x50, 0x81, 0x63, 0x42, 0x00, 0x0d, 0x3f, 0x50, 0x81, 0x63, 0x3f,
  0x00, 0x0d, 0x42, 0x50, 0x81, 0x63, 0x42, 0x00, 0x0d, 0x3f, 0x50, 0x81,
  0x63, 0x3f, 0x00, 0x0d, 0x3b, 0x50, 0x81, 0x63, 0x3b, 0x00, 0x0d, 0x3f,
  0x50, 0x81, 0x63, 0x3f, 0x00, 0x0d, 0x42, 0x50, 0x81, 0x63, 0x42, 0x00,
  0x0d, 0x3f, 0x50, 0x81, 0x63, 0x3f, 0x00, 0x0d, 0x42, 0x50, 0x81, 0x63,
  0x42, 0x00, 0x0d, 0x3f, 0x50, 0x81, 0x63, 0x3f, 0x00, 0x0d, 0x37, 0x50,
  0x81, 0x63, 0x37, 0x00, 0x0d, 0x3b, 0x50, 0x81, 0x63, 0x3b, 0x00, 0x0d,
  0x3e, 0x50, 0x81, 0x63, 0x3e, 0x00, 0x0d, 0x3b, 0x50, 0x81, 0x63, 0x3b,
  0x00, 0x0d, 0x3e, 0x50, 0x81, 0x63, 0x3e, 0x00, 0x0d, 0x3b, 0x50, 0x81,
  0x63, 0x3b, 0x00, 0x0d, 0x37, 0x50, 0x81, 0x63, 0x37, 0x00, 0x0d, 0x3a,
  0x50, 0x81, 0x63, 0x3a, 0x00, 0x0d, 0x3e, 0x50, 0x81, 0x63, 0x3e, 0x00,
  0x0d, 0x3a, 0x50, 0x81, 0x63, 0x3a, 0x00, 0x0d, 0x3e, 0x50, 0x81, 0x63,
  0x3e, 0x00, 0x0d, 0x3a, 0x50, 0x81, 0x63, 0x3a, 0x00, 0x0d, 0x3e, 0x50,
  0x81, 0x63, 0x3e, 0x00, 0x0d, 0x42, 0x50, 0x81, 0x63, 0x42, 0x00, 0x0d,
  0x45, 0x50, 0x81, 0x63, 0x45, 0x00, 0x0d, 0x42, 0x50, 0x81, 0x63, 0x42,
  0x00, 0x0d, 0x45, 0x50, 0x81, 0x63, 0x45, 0x00, 0x0d, 0x42, 0x50, 0x81,
  0x63, 0x42, 0x00, 0x0d, 0x3d, 0x50, 0x81, 0x63, 0x3d, 0x00, 0x0d, 0x40,
  0x50, 0x81, 0x63, 0x40, 0x00, 0x0d, 0x45, 0x50, 0x81, 0x63, 0x45, 0x00,
  0x0d, 0x40, 0x50, 0x81, 0x63, 0x40, 0x00, 0x0d, 0x45, 0x50, 0x81, 0x63,
  0x45, 0x00, 0x0d, 0x40, 0x50, 0x81, 0x63, 0x40, 0x00, 0x0d, 0x3e, 0x50,
  0x81, 0x63, 0x3e, 0x00, 0x0d, 0x42, 0x50, 0x81, 0x63, 0x42, 0x00, 0x0d,
  0x45, 0x50, 0x81, 0x63, 0x45, 0x00, 0x0d, 0x42, 0x50, 0x81, 0x63, 0x42,
  0x00, 0x0d, 0x45, 0x50, 0x81, 0x63, 0x45, 0x00, 0x0d, 0x42, 0x50, 0x81,
  0x63, 0x42, 0x00, 0x0d, 0x3e, 0x50, 0x81, 0x63, 0x3e, 0x00, 0x0d, 0x42,
  0x50, 0x81, 0x63, 0x42, 0x00, 0x0d, 0x45, 0x50, 0x81, 0x63, 0x45, 0x00,
  0x0d, 0x42, 0x50, 0x81, 0x63, 0x42, 0x00, 0x0d, 0x45, 0x50, 0x81, 0x63,
  0x45, 0x00, 0x0d, 0x42, 0x50, 0x81, 0x63, 0x42, 0x00, 0x0d, 0x3b, 0x50,
  0x81, 0x63, 0x3b, 0x00, 0x0d, 0x3f, 0x50, 0x81, 0x63, 0x3f, 0x00, 0x0d,
  0x42, 0x50, 0x81, 0x63, 0x42, 0x00, 0x0d, 0x3f, 0x50, 0x81, 0x63, 0x3f,
  0x00, 0x0d, 0x42, 0x50, 0x81, 0x63, 0x42, 0x00, 0x0d, 0x3f, 0x50, 0x81,
  0x63, 0x3f, 0x00, 0x0d, 0x3b, 0x50, 0x81, 0x63, 0x3b, 0x00, 0x0d, 0x3f,
  0x50, 0x81, 0x63, 0x3f, 0x00, 0x0d, 0x42, 0x50, 0x81, 0x63, 0x42, 0x00,
  0x0d, 0x3f, 0x50, 0x81, 0x63, 0x3f, 0x00, 0x0d, 0x42, 0x50, 0x81, 0x63,
  0x42, 0x00, 0x0d, 0x3f, 0x50, 0x81, 0x63, 0x3f, 0x00, 0x0d, 0x37, 0x50,
  0x81, 0x63, 0x37, 0x00, 0x0d, 0x3b, 0x50, 0x81, 0x63, 0x3b, 0x00, 0x0d,
  0x3e, 0x50, 0x81, 0x63, 0x3e, 0x00, 0x0d, 0x3b, 0x50, 0x81, 0x63, 0x3b,
  0x00, 0x0d, 0x3e, 0x50, 0x81, 0x63, 0x3e, 0x00, 0x0d, 0x3b, 0x50, 0x81,
  0x63, 0x3b, 0x00, 0x0d, 0x37, 0x50, 0x81, 0x63, 0x37, 0x00, 0x0d, 0x3a,
  0x50, 0x81, 0x63, 0x3a, 0x00, 0x0d, 0x3e, 0x50, 0x81, 0x63, 0x3e, 0x00,
  0x0d, 0x3a, 0x50, 0x81, 0x63, 0x3a, 0x00, 0x0d, 0x3e, 0x50, 0x81, 0x63,
  0x3e, 0x00, 0x0d, 0x3a, 0x50, 0x81, 0x63, 0x3a, 0x00, 0x0d, 0x3e, 0x50,
  0x81, 0x63, 0x3e, 0x00, 0x0d, 0x42, 0x50, 0x81, 0x63, 0x42, 0x00, 0x0d,
  0x45, 0x50, 0x81, 0x63, 0x45, 0x00, 0x0d, 0x42, 0x50, 0x81, 0x63, 0x42,
  0x00, 0x0d, 0x45, 0x50, 0x81, 0x63, 0x45, 0x00, 0x0d, 0x42, 0x50, 0x81,
  0x63, 0x42, 0x00, 0x0d, 0x3d, 0x50, 0x81, 0x63, 0x3d, 0x00, 0x0d, 0x40,
  0x50, 0x81, 0x63, 0x40, 0x00, 0x0d, 0x45, 0x50, 0x81, 0x63, 0x45, 0x00,
  0x0d, 0x40, 0x50, 0x81, 0x63, 0x40, 0x00, 0x0d, 0x45, 0x50, 0x81, 0x63,
  0x45, 0x00, 0x0d, 0x40, 0x50, 0x81, 0x63, 0x40, 0x00, 0x0d, 0x3e, 0x50,
  0x81, 0x63, 0x3e, 0x00, 0x0d, 0x42, 0x50, 0x81, 0x63, 0x42, 0x00, 0x0d,
  0x45, 0x50, 0x81, 0x63, 0x45, 0x00, 0x0d, 0x42, 0x50, 0x81, 0x63, 0x42,
  0x00, 0x0d, 0x45, 0x50, 0x81, 0x63, 0x45, 0x00, 0x0d, 0x42, 0x50, 0x81,
  0x63, 0x42, 0x00, 0x0d, 0x3e, 0x50, 0x81, 0x63, 0x3e, 0x00, 0x0d, 0x42,
  0x50, 0x81, 0x63, 0x42, 0x00, 0x0d, 0x45, 0x50, 0x81, 0x63, 0x45, 0x00,
  0x0d, 0x42, 0x50, 0x81, 0x63, 0x42, 0x00, 0x0d, 0x45, 0x50, 0x81, 0x63,
  0x45, 0x00, 0x0d, 0x42, 0x50, 0x81, 0x63, 0x42, 0x00, 0x0d, 0x3b, 0x50,
  0x81, 0x63, 0x3b, 0x00, 0x0d, 0x3f, 0x50, 0x81, 0x63, 0x3f, 0x00, 0x0d,
  0x42, 0x50, 0x81, 0x63, 0x42, 0x00, 0x0d, 0x3f, 0x50, 0x81, 0x63, 0x3f,
  0x00, 0x0d, 0x42, 0x50, 0x81, 0x63, 0x42, 0x00, 0x0d, 0x3f, 0x50, 0x81,
  0x63, 0x3f, 0x00, 0x0d, 0x3b, 0x50, 0x81, 0x63, 0x3b, 0x00, 0x0d, 0x3f,
  0x50, 0x81, 0x63, 0x3f, 0x00, 0x0d, 0x42, 0x50, 0x81, 0x63, 0x42, 0x00,
  0x0d, 0x3f, 0x50, 0x81, 0x63, 0x3f, 0x00, 0x0d, 0x42, 0x50, 0x81, 0x63,
  0x42, 0x00, 0x0d, 0x3f, 0x50, 0x81, 0x63, 0x3f, 0x00, 0x0d, 0x37, 0x50,
  0x81, 0x63, 0x37, 0x00, 0x0d, 0x3b, 0x50, 0x81, 0x63, 0x3b, 0x00, 0x0d,
  0x3e, 0x50, 0x81, 0x63, 0x3e, 0x00, 0x0d, 0x3b, 0x50, 0x81, 0x63, 0x3b,
  0x00, 0x0d, 0x3e, 0x50, 0x81, 0x63, 0x3e, 0x00, 0x0d, 0x3b, 0x50, 0x81,
  0x63, 0x3b, 0x00, 0x0d, 0x37, 0x50, 0x81, 0x63, 0x37, 0x00, 0x0d, 0x3a,
  0x50, 0x81, 0x63, 0x3a, 0x00, 0x0d, 0x3e, 0x50, 0x81, 0x63, 0x3e, 0x00,
  0x0d, 0x3a, 0x50, 0x81, 0x63, 0x3a, 0x00, 0x0d, 0x3e, 0x50, 0x81, 0x63,
  0x3e, 0x00, 0x0d, 0x3a, 0x50, 0x81, 0x63, 0x3a, 0x00, 0x0d, 0x3e, 0x50,
  0x81, 0x63, 0x3e, 0x00, 0x0d, 0x42, 0x50, 0x81, 0x63, 0x42, 0x00, 0x0d,
  0x45, 0x50, 0x81, 0x63, 0x45, 0x00, 0x0d, 0x42, 0x50, 0x81, 0x63, 0x42,
  0x00, 0x0d, 0x45, 0x50, 0x81, 0x63, 0x45, 0x00, 0x0d, 0x42, 0x50, 0x81,
  0x63, 0x42, 0x00, 0x0d, 0x3d, 0x50, 0x81, 0x63, 0x3d, 0x00, 0x0d, 0x42,
  0x50, 0x81, 0x63, 0x42, 0x00, 0x0d, 0x45, 0x50, 0x81, 0x63, 0x45, 0x00,
  0x0d, 0x42, 0x50, 0x81, 0x63, 0x42, 0x00, 0x0d, 0x45, 0x50, 0x81, 0x63,
  0x45, 0x00, 0x0d, 0x42, 0x50, 0x81, 0x63, 0x42, 0x00, 0x01, 0xff, 0x2f,
  0x00, 0x4d, 0x54, 0x72, 0x6b, 0x00, 0x00, 0x00, 0xea, 0x00, 0xff, 0x59,
  0x02, 0x02, 0x00, 0x00, 0xff, 0x21, 0x01, 0x00, 0xda, 0x00, 0xff, 0x59,
  0x02, 0x02, 0x00, 0xd6, 0x20, 0x90, 0x31, 0x50, 0x83, 0x47, 0x31, 0x00,
  0x19, 0x32, 0x50, 0x85, 0x2b, 0x32, 0x00, 0x25, 0x26, 0x50, 0x81, 0x63,
  0x26, 0x00, 0x0d, 0x26, 0x50, 0x83, 0x47, 0x26, 0x00, 0x19, 0x2d, 0x50,
  0x87, 0x0f, 0x2d, 0x00, 0x31, 0x31, 0x50, 0x83, 0x47, 0x31, 0x00, 0x19,
  0x2f, 0x50, 0x8a, 0x57, 0x2f, 0x00, 0x49, 0x2a, 0x50, 0x8a, 0x57, 0x2a,
  0x00, 0x49, 0x2b, 0x50, 0x83, 0x47, 0x2b, 0x00, 0x19, 0x32, 0x50, 0x87,
  0x0f, 0x32, 0x00, 0x31, 0x32, 0x50, 0x83, 0x47, 0x32, 0x00, 0x19, 0x2e,
  0x50, 0x87, 0x0f, 0x2e, 0x00, 0x31, 0x2d, 0x50, 0x8a, 0x57, 0x2d, 0x00,
  0x49, 0x2d, 0x50, 0x83, 0x47, 0x2d, 0x00, 0x19, 0x2b, 0x50, 0x83, 0x47,
  0x2b, 0x00, 0x19, 0x31, 0x50, 0x83, 0x47, 0x31, 0x00, 0x19, 0x32, 0x50,
  0x85, 0x2b, 0x32, 0x00, 0x25, 0x26, 0x50, 0x81, 0x63, 0x26, 0x00, 0x0d,
  0x26, 0x50, 0x83, 0x47, 0x26, 0x00, 0x19, 0x2d, 0x50, 0x87, 0x0f, 0x2d,
  0x00, 0x31, 0x31, 0x50, 0x83, 0x47, 0x31, 0x00, 0x19, 0x2f, 0x50, 0x8a,
  0x57, 0x2f, 0x00, 0x49, 0x2a, 0x50, 0x8a, 0x57, 0x2a, 0x00, 0x49, 0x2b,
  0x50, 0x83, 0x47, 0x2b, 0x00, 0x19, 0x32, 0x50, 0x87, 0x0f, 0x32, 0x00,
  0x31, 0x32, 0x50, 0x83, 0x47, 0x32, 0x00, 0x19, 0x2e, 0x50, 0x87, 0x0f,
  0x2e, 0x00, 0x31, 0x2d, 0x50, 0x8a, 0x57, 0x2d, 0x00, 0x49, 0x26, 0x50,
  0x87, 0x0f, 0x26, 0x00, 0x31, 0x2d, 0x50, 0x83, 0x47, 0x2d, 0x00, 0x01,
  0xff, 0x2f, 0x00
};
unsigned int fallen_down_len = 2931;
