unsigned char note_c[] = {
  0x4d, 0x54, 0x68, 0x64, 0x00, 0x00, 0x00, 0x06, 0x00, 0x00, 0x00, 0x01,
  0x00, 0x78, 0x4d, 0x54, 0x72, 0x6b, 0x00, 0x00, 0x00, 0x14, 0x00, 0xff,
  0x51, 0x03, 0x07, 0xa1, 0x20, 0x00, 0x90, 0x3c, 0x64, 0x89, 0x30, 0x80,
  0x3c, 0x00, 0x00, 0xff, 0x2f, 0x00
};
unsigned int note_c_len = 42;
